<?xml version="1.0" encoding="iso-8859-1"?>
<!-- Generator: Adobe Illustrator 19.0.0, SVG Export Plug-In . SVG Version: 6.00 Build 0)  -->
<svg version="1.1" id="Layer_1" xmlns="http://www.w3.org/2000/svg" xmlns:xlink="http://www.w3.org/1999/xlink" x="0px" y="0px"
	 viewBox="0 0 512 512" style="enable-background:new 0 0 512 512;" xml:space="preserve">
<g id="Others">
</g>
<g id="Design">
</g>
<g id="SEO_x2F__Web">
	<g id="website__x26__medal">
		<g>
			
				<radialGradient id="SVGID_1_" cx="256" cy="258" r="256" gradientTransform="matrix(1 0 0 -1 0 514)" gradientUnits="userSpaceOnUse">
				<stop  offset="0" style="stop-color:#04BE9E"/>
				<stop  offset="1" style="stop-color:#00A185"/>
			</radialGradient>
			<circle style="fill:url(#SVGID_1_);" cx="256" cy="256" r="256"/>
		</g>
		<g>
			<path style="fill:#BDC3C7;" d="M411,363c0,11.046-8.954,20-20,20H76c-11.046,0-20-8.954-20-20V141c0-11.046,8.954-20,20-20h315
				c11.046,0,20,8.954,20,20V363z"/>
			<path style="fill:#FFFFFF;" d="M394,351c0,5.5-4.5,10-10,10H82c-5.5,0-10-4.5-10-10V179c0-5.5,4.5-10,10-10h302
				c5.5,0,10,4.5,10,10V351z"/>
			<path style="fill:#BDC3C7;" d="M378,259c0,5.5-4.5,10-10,10H99c-5.5,0-10-4.5-10-10v-66c0-5.5,4.5-10,10-10h269
				c5.5,0,10,4.5,10,10V259z"/>
			<path style="fill:#BDC3C7;" d="M222,297c0,1.1-0.9,2-2,2H92c-1.1,0-2-0.9-2-2v-6c0-1.1,0.9-2,2-2h128c1.1,0,2,0.9,2,2V297z"/>
			<path style="fill:#BDC3C7;" d="M222,317c0,1.1-0.9,2-2,2H92c-1.1,0-2-0.9-2-2v-6c0-1.1,0.9-2,2-2h128c1.1,0,2,0.9,2,2V317z"/>
			<path style="fill:#BDC3C7;" d="M222,337c0,1.1-0.9,2-2,2H92c-1.1,0-2-0.9-2-2v-6c0-1.1,0.9-2,2-2h128c1.1,0,2,0.9,2,2V337z"/>
			<path style="fill:#BDC3C7;" d="M377,328c0,5.5-4.5,10-10,10H255c-5.5,0-10-4.5-10-10v-29c0-5.5,4.5-10,10-10h112
				c5.5,0,10,4.5,10,10V328z"/>
			<circle style="fill:#FFFFFF;" cx="84.03" cy="145.667" r="9.666"/>
			<circle style="fill:#EE483C;" cx="84.03" cy="145.667" r="9.666"/>
			<circle style="fill:#F4C342;" cx="114.03" cy="145.667" r="9.666"/>
			<circle style="fill:#00CA77;" cx="144.03" cy="145.667" r="9.666"/>
			<path style="opacity:0.4;fill:#2A3E4F;enable-background:new    ;" d="M391.362,121H326.73l-2.346,18.944l-18.246,23.404
				l18.246,23.405l3.467,29.451l13.148,1.65v18v112.243l39.814-27.736L411,341.195V141C411,130,402.362,121,391.362,121z"/>
			<g>
				<polygon style="fill:#F4C342;" points="421,318.097 380.814,290.361 341,318.097 341,90 421,90 				"/>
				<polygon style="fill:#F89B36;" points="421,205.737 421,96.959 404.111,94.846 398.077,90 363.699,90 357.303,94.846 
					341,96.842 341,205.854 357.303,207.851 380.798,226.097 404.065,207.851 				"/>
				<polygon style="fill:#F4C342;" points="433.744,80.493 437.391,109.944 455.638,133.349 437.392,156.753 433.743,186.203 
					404.294,189.851 380.89,208.098 357.482,189.851 328.033,186.204 324.385,156.753 306.139,133.348 324.385,109.944 
					328.033,80.493 357.484,76.846 380.888,58.599 404.293,76.846 				"/>
				<g>
					<path style="fill:#FFFFFF;" d="M380.888,184.348c-28.122,0-51-22.878-51-51s22.878-51,51-51c28.121,0,51,22.878,51,51
						S409.009,184.348,380.888,184.348z M380.888,94.348c-21.505,0-39,17.495-39,39s17.495,39,39,39s39-17.495,39-39
						S402.393,94.348,380.888,94.348z"/>
				</g>
			</g>
		</g>
	</g>
</g>
<g id="Finance__x2F__Money">
</g>
<g id="E-Commerce__x2F__Shopping">
</g>
<g id="Strategy">
</g>
<g>
</g>
<g>
</g>
<g>
</g>
<g>
</g>
<g>
</g>
<g>
</g>
<g>
</g>
<g>
</g>
<g>
</g>
<g>
</g>
<g>
</g>
<g>
</g>
<g>
</g>
<g>
</g>
<g>
</g>
</svg>
