<?xml version="1.0" encoding="iso-8859-1"?>
<!-- Generator: Adobe Illustrator 19.0.0, SVG Export Plug-In . SVG Version: 6.00 Build 0)  -->
<svg version="1.1" id="Layer_1" xmlns="http://www.w3.org/2000/svg" xmlns:xlink="http://www.w3.org/1999/xlink" x="0px" y="0px"
	 viewBox="0 0 485 485" style="enable-background:new 0 0 485 485;" xml:space="preserve">
<path d="M0,71.483v342.034h485V71.483H0z M227.5,274.116c-11.814-5.628-20-17.682-20-31.616s8.186-25.988,20-31.616V274.116z
	 M257.5,210.884c11.814,5.628,20,17.682,20,31.616s-8.186,25.988-20,31.616V210.884z M30,227.5v-61.133h13.726
	c41.98,0,76.134,34.153,76.134,76.133s-34.153,76.133-76.134,76.133H30V257.5h34.859v-30H30z M30,348.633h13.726
	c58.522,0,106.134-47.611,106.134-106.133S102.248,136.367,43.726,136.367H30v-34.884h197.5v77.783
	c-28.631,6.792-50,32.556-50,63.234s21.369,56.442,50,63.234v77.783H30V348.633z M257.5,383.517v-77.783
	c28.631-6.792,50-32.556,50-63.234s-21.369-56.442-50-63.234v-77.783H455v34.884h-13.726c-58.522,0-106.134,47.611-106.134,106.133
	s47.611,106.133,106.134,106.133H455v34.884H257.5z M455,257.5v61.133h-13.726c-41.98,0-76.134-34.153-76.134-76.133
	s34.153-76.133,76.134-76.133H455V227.5h-34.859v30H455z"/>
<g>
</g>
<g>
</g>
<g>
</g>
<g>
</g>
<g>
</g>
<g>
</g>
<g>
</g>
<g>
</g>
<g>
</g>
<g>
</g>
<g>
</g>
<g>
</g>
<g>
</g>
<g>
</g>
<g>
</g>
</svg>
