<?xml version="1.0" encoding="iso-8859-1"?>
<!-- Generator: Adobe Illustrator 19.0.0, SVG Export Plug-In . SVG Version: 6.00 Build 0)  -->
<svg version="1.1" id="Layer_1" xmlns="http://www.w3.org/2000/svg" xmlns:xlink="http://www.w3.org/1999/xlink" x="0px" y="0px"
	 viewBox="0 0 491.52 491.52" style="enable-background:new 0 0 491.52 491.52;" xml:space="preserve">
<circle style="fill:#45B39C;" cx="245.76" cy="245.76" r="245.76"/>
<path style="opacity:0.1;enable-background:new    ;" d="M491.257,256.167l-146.63-146.6l-0.41-0.461
	c-0.205-0.205-0.409-0.461-0.666-0.666c-2.253-2.15-5.325-3.482-8.704-3.482H156.672c-7.014,0-12.646,5.683-12.646,12.646v256.307
	c0,3.431,1.331,6.503,3.584,8.807l108.538,108.537C383.598,485.952,485.941,383.616,491.257,256.167z"/>
<path style="fill:#3A556A;" d="M334.874,111.095H156.647c-6.984,0-12.646,5.662-12.646,12.646v250.173
	c0,6.984,5.662,12.646,12.646,12.646h178.227c6.984,0,12.646-5.662,12.646-12.646V123.741
	C347.52,116.757,341.858,111.095,334.874,111.095z"/>
<path style="fill:#64798A;" d="M334.874,104.96H156.647c-6.984,0-12.646,5.662-12.646,12.646v250.173
	c0,6.984,5.662,12.646,12.646,12.646h178.227c6.984,0,12.646-5.662,12.646-12.646V117.606
	C347.52,110.622,341.858,104.96,334.874,104.96z"/>
<rect x="164.198" y="120.484" style="fill:#44C4A1;" width="163.118" height="67.021"/>
<rect x="164.198" y="178.212" style="fill:#3EA69B;" width="163.118" height="9.298"/>
<rect x="164.198" y="201.779" style="fill:#FCD462;" width="35.512" height="32.778"/>
<rect x="164.198" y="229.975" style="fill:#F6C358;" width="35.512" height="4.588"/>
<rect x="206.746" y="201.779" style="fill:#27A2DB;" width="35.512" height="32.778"/>
<rect x="206.746" y="229.975" style="fill:#2D93BA;" width="35.512" height="4.588"/>
<rect x="249.272" y="201.779" style="fill:#E56353;" width="35.512" height="32.778"/>
<rect x="249.272" y="229.975" style="fill:#D15241;" width="35.512" height="4.588"/>
<rect x="291.804" y="201.779" style="fill:#44C4A1;" width="35.512" height="32.778"/>
<rect x="291.804" y="229.975" style="fill:#3EA69B;" width="35.512" height="4.588"/>
<rect x="164.198" y="244.47" style="fill:#EBF0F3;" width="35.512" height="32.778"/>
<rect x="164.198" y="272.64" style="fill:#E1E6E9;" width="35.512" height="4.588"/>
<rect x="206.746" y="244.47" style="fill:#EBF0F3;" width="35.512" height="32.778"/>
<rect x="206.746" y="272.64" style="fill:#E1E6E9;" width="35.512" height="4.588"/>
<rect x="249.272" y="244.47" style="fill:#EBF0F3;" width="35.512" height="32.778"/>
<rect x="249.272" y="272.64" style="fill:#E1E6E9;" width="35.512" height="4.588"/>
<rect x="291.804" y="244.47" style="fill:#EBF0F3;" width="35.512" height="32.778"/>
<rect x="291.804" y="272.64" style="fill:#E1E6E9;" width="35.512" height="4.588"/>
<rect x="164.198" y="287.13" style="fill:#EBF0F3;" width="35.512" height="32.778"/>
<rect x="164.198" y="315.341" style="fill:#E1E6E9;" width="35.512" height="4.588"/>
<rect x="206.746" y="287.13" style="fill:#EBF0F3;" width="35.512" height="32.778"/>
<rect x="206.746" y="315.341" style="fill:#E1E6E9;" width="35.512" height="4.588"/>
<rect x="249.272" y="287.13" style="fill:#EBF0F3;" width="35.512" height="32.778"/>
<rect x="249.272" y="315.341" style="fill:#E1E6E9;" width="35.512" height="4.588"/>
<rect x="291.804" y="287.13" style="fill:#EBF0F3;" width="35.512" height="32.778"/>
<rect x="291.804" y="315.341" style="fill:#E1E6E9;" width="35.512" height="4.588"/>
<rect x="164.198" y="329.83" style="fill:#EBF0F3;" width="35.512" height="32.778"/>
<rect x="164.198" y="358.031" style="fill:#E1E6E9;" width="35.512" height="4.588"/>
<rect x="206.746" y="329.83" style="fill:#EBF0F3;" width="35.512" height="32.778"/>
<rect x="206.746" y="358.031" style="fill:#E1E6E9;" width="35.512" height="4.588"/>
<rect x="249.272" y="329.83" style="fill:#EBF0F3;" width="35.512" height="32.778"/>
<rect x="249.272" y="358.031" style="fill:#E1E6E9;" width="35.512" height="4.588"/>
<rect x="291.804" y="329.83" style="fill:#EBF0F3;" width="35.512" height="32.778"/>
<rect x="291.804" y="358.031" style="fill:#E1E6E9;" width="35.512" height="4.588"/>
<g>
</g>
<g>
</g>
<g>
</g>
<g>
</g>
<g>
</g>
<g>
</g>
<g>
</g>
<g>
</g>
<g>
</g>
<g>
</g>
<g>
</g>
<g>
</g>
<g>
</g>
<g>
</g>
<g>
</g>
</svg>
